<svg xmlns="http://www.w3.org/2000/svg" width="920" height="520" viewBox="0 0 920 520">
  <defs>
    <marker id="arrow" viewBox="0 0 10 10" refX="5" refY="5" markerWidth="8" markerHeight="8" orient="auto-start-reverse">
      <path d="M 0 0 L 10 5 L 0 10 z" fill="currentColor"/>
    </marker>
  </defs>
  <rect x="0" y="0" width="920" height="520" rx="22" ry="22" fill="none" stroke="currentColor" stroke-width="2"/>
  <text x="460.0" y="44" text-anchor="middle" font-size="22" font-family="Inter, system-ui, sans-serif">Connessione app ↔ nodo (schema mentale)</text>

  <rect x="110" y="80" width="700" height="68" rx="16" ry="16" fill="none" stroke="currentColor" stroke-width="2"/>
  <text x="460.0" y="124" text-anchor="middle" font-size="18" font-family="Inter, system-ui, sans-serif">Nodo acceso (radio pronta)</text>
  <rect x="110" y="166" width="700" height="68" rx="16" ry="16" fill="none" stroke="currentColor" stroke-width="2"/>
  <text x="460.0" y="210" text-anchor="middle" font-size="18" font-family="Inter, system-ui, sans-serif">Telefono: Bluetooth o Wi‑Fi (quando disponibile)</text>
  <rect x="110" y="252" width="700" height="68" rx="16" ry="16" fill="none" stroke="currentColor" stroke-width="2"/>
  <text x="460.0" y="296" text-anchor="middle" font-size="18" font-family="Inter, system-ui, sans-serif">App Meshtastic: collega e sincronizza</text>
  <rect x="110" y="338" width="700" height="68" rx="16" ry="16" fill="none" stroke="currentColor" stroke-width="2"/>
  <text x="460.0" y="382" text-anchor="middle" font-size="18" font-family="Inter, system-ui, sans-serif">Test: ricevi nodi / messaggio di prova</text>
  <line x1="460.0" y1="148" x2="460.0" y2="166" stroke="currentColor" stroke-width="2" marker-end="url(#arrow)"/>
  <line x1="460.0" y1="234" x2="460.0" y2="252" stroke="currentColor" stroke-width="2" marker-end="url(#arrow)"/>
  <line x1="460.0" y1="320" x2="460.0" y2="338" stroke="currentColor" stroke-width="2" marker-end="url(#arrow)"/>
</svg>